HIERARCHY
ROOT Hips
{
	OFFSET 0.000000 0.000000 0.000000
	CHANNELS 6 Xposition Yposition Zposition Xrotation Yrotation Zrotation
	JOINT Spine
	{
		OFFSET 0.000000 0.053497 0.080245
		CHANNELS 3 Xrotation Yrotation Zrotation
		JOINT Spine1
		{
			OFFSET 0.000000 0.018579 0.105368
			CHANNELS 3 Xrotation Yrotation Zrotation
			JOINT Spine2
			{
				OFFSET 0.000000 0.009325 0.106586
				CHANNELS 3 Xrotation Yrotation Zrotation
				JOINT Spine3
				{
					OFFSET 0.000000 0.000000 0.106993
					CHANNELS 3 Xrotation Yrotation Zrotation
					JOINT Neck
					{
						OFFSET 0.000000 -0.040122 0.280858
						CHANNELS 3 Xrotation Yrotation Zrotation
						JOINT Head
						{
							OFFSET 0.000000 -0.025546 0.144881
							CHANNELS 3 Xrotation Yrotation Zrotation
							End Site
							{
								OFFSET 0.000000 0.000000 0.000000
							}
						}
					}
					JOINT RightShoulder
					{
						OFFSET -0.032541 -0.054234 0.175720
						CHANNELS 3 Xrotation Yrotation Zrotation
						JOINT RightArm
						{
							OFFSET -0.161619 0.000000 0.000000
							CHANNELS 3 Xrotation Yrotation Zrotation
							JOINT RightForeArm
							{
								OFFSET -0.257104 0.000000 0.000000
								CHANNELS 3 Xrotation Yrotation Zrotation
								JOINT RightHand
								{
									OFFSET -0.273485 0.000000 0.000000
									CHANNELS 3 Xrotation Yrotation Zrotation
									JOINT RightHandEnd
									{
										OFFSET -0.070844 0.000000 0.000000
										CHANNELS 3 Xrotation Yrotation Zrotation
										End Site
										{
											OFFSET 0.000000 0.000000 0.000000
										}
									}
									JOINT RightHandThumb1
									{
										OFFSET -0.028338 -0.047230 -0.018892
										CHANNELS 3 Xrotation Yrotation Zrotation
										End Site
										{
											OFFSET 0.000000 0.000000 0.000000
										}
									}
								}
							}
						}
					}
					JOINT LeftShoulder
					{
						OFFSET 0.032541 -0.054234 0.175720
						CHANNELS 3 Xrotation Yrotation Zrotation
						JOINT LeftArm
						{
							OFFSET 0.161619 0.000000 0.000000
							CHANNELS 3 Xrotation Yrotation Zrotation
							JOINT LeftForeArm
							{
								OFFSET 0.257104 0.000000 0.000000
								CHANNELS 3 Xrotation Yrotation Zrotation
								JOINT LeftHand
								{
									OFFSET 0.273485 0.000000 0.000000
									CHANNELS 3 Xrotation Yrotation Zrotation
									JOINT LeftHandEnd
									{
										OFFSET 0.070844 0.000000 0.000000
										CHANNELS 3 Xrotation Yrotation Zrotation
										End Site
										{
											OFFSET 0.000000 0.000000 0.000000
										}
									}
									JOINT LeftHandThumb1
									{
										OFFSET 0.028338 -0.047230 -0.018892
										CHANNELS 3 Xrotation Yrotation Zrotation
										End Site
										{
											OFFSET 0.000000 0.000000 0.000000
										}
									}
								}
							}
						}
					}
				}
			}
		}
	}
	JOINT RightUpLeg
	{
		OFFSET -0.096537 0.000000 -0.028202
		CHANNELS 3 Xrotation Yrotation Zrotation
		JOINT RightLeg
		{
			OFFSET 0.000000 0.000000 -0.431842
			CHANNELS 3 Xrotation Yrotation Zrotation
			JOINT RightFoot
			{
				OFFSET 0.000000 0.000000 -0.456398
				CHANNELS 3 Xrotation Yrotation Zrotation
				JOINT RightToeBase
				{
					OFFSET 0.000000 -0.128905 -0.046918
					CHANNELS 3 Xrotation Yrotation Zrotation
					End Site
					{
						OFFSET 0.000000 0.000000 0.000000
					}
				}
			}
		}
	}
	JOINT LeftUpLeg
	{
		OFFSET 0.096537 0.000000 -0.028202
		CHANNELS 3 Xrotation Yrotation Zrotation
		JOINT LeftLeg
		{
			OFFSET 0.000000 0.000000 -0.431842
			CHANNELS 3 Xrotation Yrotation Zrotation
			JOINT LeftFoot
			{
				OFFSET 0.000000 0.000000 -0.456398
				CHANNELS 3 Xrotation Yrotation Zrotation
				JOINT LeftToeBase
				{
					OFFSET 0.000000 -0.128905 -0.046918
					CHANNELS 3 Xrotation Yrotation Zrotation
					End Site
					{
						OFFSET 0.000000 0.000000 0.000000
					}
				}
			}
		}
	}
}
MOTION
Frames: 9
Frame Time: 0.033333
1.175929 -0.408691 0.973925 1.175000 -1.010000 -93.613000 -1.102700 0.453500 0.274300 -1.215500 -0.266000 -0.081700 4.096400 -1.818500 -1.269100 1.497600 -0.199300 0.165100 1.974000 4.705800 -5.653500 -1.765000 -1.089000 -8.339200 5.008300 -3.597300 1.857500 -24.467800 -18.715000 -19.032000 0.000000 0.000000 24.838300 -5.722700 12.732400 3.726100 0.000000 0.000000 0.000000 0.000000 0.000000 0.000000 3.901600 -0.401100 -1.042400 -29.297100 23.429200 26.552900 0.000000 0.000000 -22.316900 -20.920800 -17.298600 4.168800 0.000000 0.000000 0.000000 0.000000 0.000000 0.000000 -1.332200 2.274200 -29.507100 6.363500 0.000000 0.000000 -5.016900 -5.233400 0.719400 4.373100 0.000000 0.000000 0.108000 -3.537100 22.326500 5.247700 0.000000 0.000000 -9.006000 15.983300 4.557400 11.745200 0.000000 0.000000 
1.175913 -0.408564 0.973935 1.180700 -1.009700 -93.597500 -1.117400 0.453000 0.274500 -1.223000 -0.271100 -0.084000 4.113700 -1.833400 -1.276700 1.502400 -0.200000 0.169600 1.989200 4.726500 -5.642900 -1.751100 -1.080900 -8.324000 5.001300 -3.581600 1.848200 -24.507900 -18.713600 -19.063500 0.000000 0.000000 24.856400 -5.771800 12.765500 3.711400 0.000000 0.000000 0.000000 0.000000 0.000000 0.000000 3.909600 -0.354600 -1.012500 -29.294600 23.376700 26.497400 0.000000 0.000000 -22.257400 -20.813600 -17.281300 4.102600 0.000000 0.000000 0.000000 0.000000 0.000000 0.000000 -1.325700 2.255800 -29.507100 6.356700 0.000000 0.000000 -5.027800 -5.202000 0.702000 4.389400 0.000000 0.000000 0.120600 -3.548000 22.332500 5.220500 0.000000 0.000000 -8.986000 16.000000 4.530800 11.720700 0.000000 0.000000 
1.175921 -0.408356 0.973945 1.188300 -0.997200 -93.562200 -1.126800 0.447300 0.277900 -1.228700 -0.275800 -0.085300 4.136800 -1.853200 -1.288200 1.511300 -0.198900 0.173300 2.031300 4.750300 -5.629400 -1.751800 -1.069900 -8.295500 4.998300 -3.564600 1.825400 -24.531500 -18.710700 -19.094700 0.000000 0.000000 24.871800 -5.808000 12.769600 3.709800 0.000000 0.000000 0.000000 0.000000 0.000000 0.000000 3.921800 -0.319900 -0.967300 -29.312500 23.338700 26.445700 0.000000 0.000000 -22.209200 -20.670200 -17.300900 3.972800 0.000000 0.000000 0.000000 0.000000 0.000000 0.000000 -1.302500 2.231100 -29.522200 6.344800 0.000000 0.000000 -5.039200 -5.165800 0.683400 4.418600 0.000000 0.000000 0.138700 -3.566400 22.347000 5.199100 0.000000 0.000000 -8.963200 16.018500 4.484500 11.720300 0.000000 0.000000 
1.176033 -0.408168 0.973948 1.189300 -0.990000 -93.512200 -1.130200 0.438900 0.277000 -1.232700 -0.277900 -0.086100 4.157500 -1.866300 -1.285400 1.519600 -0.198400 0.176200 2.087200 4.755500 -5.608700 -1.740600 -1.047000 -8.272800 4.992400 -3.540500 1.778700 -24.524000 -18.734100 -19.118700 0.000000 0.000000 24.884300 -5.703400 12.740800 3.703100 0.000000 0.000000 0.000000 0.000000 0.000000 0.000000 3.922400 -0.306300 -0.934900 -29.340400 23.324000 26.418500 0.000000 0.000000 -22.211700 -20.559400 -17.329900 3.866800 0.000000 0.000000 0.000000 0.000000 0.000000 0.000000 -1.293900 2.218400 -29.553700 6.342900 0.000000 0.000000 -5.043500 -5.148600 0.670600 4.441700 0.000000 0.000000 0.137500 -3.578500 22.338200 5.186500 0.000000 0.000000 -8.940500 16.032400 4.449700 11.758200 0.000000 0.000000 
1.176271 -0.408059 0.973950 1.182400 -1.009200 -93.463500 -1.140300 0.427100 0.266300 -1.242800 -0.267400 -0.085300 4.176500 -1.876600 -1.269700 1.527100 -0.199700 0.179000 2.151600 4.738600 -5.580900 -1.705200 -1.005400 -8.251300 4.979700 -3.509700 1.723100 -24.504500 -18.789800 -19.125500 0.000000 0.000000 24.892300 -5.517600 12.707800 3.671400 0.000000 0.000000 0.000000 0.000000 0.000000 0.000000 3.914100 -0.294400 -0.912200 -29.348500 23.318500 26.397200 0.000000 0.000000 -22.261800 -20.489200 -17.368000 3.820100 0.000000 0.000000 0.000000 0.000000 0.000000 0.000000 -1.331800 2.222100 -29.583800 6.363200 0.000000 0.000000 -5.044500 -5.143300 0.656200 4.450000 0.000000 0.000000 0.101100 -3.578900 22.285900 5.172100 0.000000 0.000000 -8.914100 16.048100 4.449500 11.795100 0.000000 0.000000 
1.176558 -0.407988 0.973960 1.175800 -1.042400 -93.427800 -1.159900 0.414300 0.254300 -1.256700 -0.258000 -0.084700 4.195400 -1.877900 -1.262700 1.537600 -0.202500 0.183400 2.239700 4.708400 -5.558200 -1.682200 -0.950800 -8.203700 4.964100 -3.493700 1.696000 -24.475100 -18.838000 -19.109400 0.000000 0.000000 24.889100 -5.459200 12.669000 3.640000 0.000000 0.000000 0.000000 0.000000 0.000000 0.000000 3.916200 -0.281700 -0.880200 -29.353300 23.319800 26.379300 0.000000 0.000000 -22.333700 -20.429400 -17.513300 3.776300 0.000000 0.000000 0.000000 0.000000 0.000000 0.000000 -1.393200 2.226900 -29.594900 6.391200 0.000000 0.000000 -5.049300 -5.129900 0.630900 4.454600 0.000000 0.000000 0.049100 -3.577700 22.217800 5.157300 0.000000 0.000000 -8.888800 16.063700 4.472000 11.802500 0.000000 0.000000 
1.176820 -0.407899 0.973978 1.173600 -1.063800 -93.398800 -1.174900 0.404400 0.249100 -1.268100 -0.258300 -0.084500 4.213100 -1.869400 -1.271100 1.551200 -0.205700 0.184800 2.350300 4.666600 -5.540300 -1.693300 -0.889300 -8.126100 4.957300 -3.502300 1.703200 -24.429700 -18.854600 -19.073300 0.000000 0.000000 24.875100 -5.562400 12.600900 3.651200 0.000000 0.000000 0.000000 0.000000 0.000000 0.000000 3.931500 -0.283600 -0.835800 -29.396000 23.338600 26.377800 0.000000 0.000000 -22.401700 -20.381900 -17.814200 3.698400 0.000000 0.000000 0.000000 0.000000 0.000000 0.000000 -1.433900 2.223100 -29.598200 6.403500 0.000000 0.000000 -5.054800 -5.111800 0.604100 4.462900 0.000000 0.000000 0.003100 -3.583900 22.166600 5.161200 0.000000 0.000000 -8.877000 16.062800 4.495000 11.808100 0.000000 0.000000 
1.177074 -0.407800 0.973986 1.170100 -1.073300 -93.371500 -1.182100 0.396500 0.252000 -1.271700 -0.264000 -0.085800 4.224900 -1.852600 -1.278200 1.561200 -0.207800 0.182000 2.453200 4.606700 -5.513800 -1.696400 -0.820400 -8.036600 4.960800 -3.525300 1.713000 -24.384400 -18.857000 -19.032600 0.000000 0.000000 24.870600 -5.644400 12.518600 3.695000 0.000000 0.000000 0.000000 0.000000 0.000000 0.000000 3.937700 -0.302600 -0.800300 -29.463100 23.366300 26.390000 0.000000 0.000000 -22.449000 -20.361100 -18.114900 3.642000 0.000000 0.000000 0.000000 0.000000 0.000000 0.000000 -1.454500 2.219400 -29.609300 6.401500 0.000000 0.000000 -5.053400 -5.105600 0.589200 4.463700 0.000000 0.000000 -0.036900 -3.590600 22.132500 5.179900 0.000000 0.000000 -8.874900 16.043400 4.512100 11.841000 0.000000 0.000000 
1.177359 -0.407700 0.973988 1.167400 -1.087800 -93.344200 -1.185500 0.389700 0.251500 -1.275900 -0.273100 -0.086500 4.230400 -1.835500 -1.275600 1.564600 -0.211100 0.179400 2.526000 4.543300 -5.462900 -1.655700 -0.755100 -7.943400 4.969800 -3.536200 1.704400 -24.376200 -18.877800 -19.004400 0.000000 0.000000 24.891600 -5.610600 12.480800 3.723300 0.000000 0.000000 0.000000 0.000000 0.000000 0.000000 3.930200 -0.315000 -0.773900 -29.500000 23.384300 26.379100 0.000000 0.000000 -22.467600 -20.354100 -18.228400 3.658500 0.000000 0.000000 0.000000 0.000000 0.000000 0.000000 -1.480600 2.214500 -29.627700 6.395800 0.000000 0.000000 -5.042300 -5.104100 0.580900 4.454800 0.000000 0.000000 -0.085400 -3.599500 22.094500 5.202600 0.000000 0.000000 -8.870700 16.029400 4.524200 11.864800 0.000000 0.000000 
